<?xml version="1.0" encoding="utf-8"?>
<svg width="140px" height="140px" viewBox="0 0 140 140" version="1.1" xmlns:xlink="http://www.w3.org/1999/xlink" xmlns="http://www.w3.org/2000/svg">
  <defs>
    <path d="M0 0L140 0L140 140L0 140L0 0Z" id="path_1" />
    <clipPath id="mask_1">
      <use xlink:href="#path_1" />
    </clipPath>
  </defs>
  <g id="file-icon-image">
    <path d="M0 0L140 0L140 140L0 140L0 0Z" id="Background" fill="none" fill-rule="evenodd" stroke="none" />
    <g clip-path="url(#mask_1)">
      <path d="M94.9648 30.7207L65.543 1.28516C64.7227 0.464844 63.6016 0 62.4395 0L4.375 0C1.95508 0 0 1.95508 0 4.375L0 118.125C0 120.545 1.95508 122.5 4.375 122.5L91.875 122.5C94.2949 122.5 96.25 120.545 96.25 118.125L96.25 33.8105C96.25 32.6484 95.7852 31.541 94.9648 30.7207L94.9648 30.7207ZM32.8125 46.2109C35.834 46.2109 38.2813 48.6582 38.2813 51.6797C38.2813 54.7012 35.834 57.1484 32.8125 57.1484C29.791 57.1484 27.3438 54.7012 27.3438 51.6797C27.3438 48.6582 29.791 46.2109 32.8125 46.2109L32.8125 46.2109ZM73.2812 86.4062L22.9687 86.4062C22.0527 86.4062 21.5469 85.3535 22.1074 84.6425L35.7519 67.2519C36.1894 66.6914 37.0371 66.6914 37.4746 67.2519L43.0937 74.416L53.7305 60.8535C54.168 60.2929 55.0156 60.2929 55.4531 60.8535L74.1152 84.6425C74.7031 85.3535 74.1836 86.4062 73.2812 86.4062L73.2812 86.4062ZM60.4297 35.8202L60.4297 10.0898L86.1602 35.8202L60.4297 35.8202L60.4297 35.8202Z" transform="translate(21.875 8.75)" id="Shape" fill="#D81E06" fill-rule="evenodd" stroke="none" />
    </g>
  </g>
</svg>