<?xml version="1.0" encoding="utf-8"?>
<svg width="206px" height="185px" viewBox="0 0 206 185" version="1.1" xmlns:xlink="http://www.w3.org/1999/xlink" xmlns="http://www.w3.org/2000/svg">
  <defs>
    <path d="M0 4L0 2C0 1.44772 0.195262 0.976311 0.585786 0.585786C0.976311 0.195262 1.44772 0 2 0L79 0C79.5523 0 80.0237 0.195262 80.4142 0.585786C80.8047 0.976311 81 1.44772 81 2L81 47C81 47.5523 80.8047 48.0237 80.4142 48.4142C80.0237 48.8047 79.5523 49 79 49L2 49C1.44772 49 0.976311 48.8047 0.585786 48.4142C0.195262 48.0237 0 47.5523 0 47L0 4Z" id="path_1" />
    <clipPath id="mask_1">
      <use xlink:href="#path_1" />
    </clipPath>
  </defs>
  <g id="chat" transform="translate(1 1)">
    <g id="Illustration聊天对话">
      <g id="聊天对话">
        <g id="img_chatillustration">
          <g id="编组-37">
            <path d="M0 88C0 39.3989 39.3989 0 88 0C136.601 0 176 39.3989 176 88C176 136.601 136.601 176 88 176C39.3989 176 0 136.601 0 88Z" transform="translate(26 3)" id="椭圆形" fill="#E1E8F1" fill-opacity="0.4" fill-rule="evenodd" stroke="none" />
            <path d="M0 28L0 14C0 10.134 1.36683 6.83418 4.10051 4.1005C6.83418 1.36683 10.134 0 14 0L91 0C94.866 0 98.1658 1.36683 100.899 4.1005C103.633 6.83418 105 10.134 105 14L105 160C105 163.866 103.633 167.166 100.899 169.899C98.1658 172.633 94.866 174 91 174L14 174C10.134 174 6.83418 172.633 4.10051 169.899C1.36683 167.166 0 163.866 0 160L0 28Z" transform="translate(64 0)" id="矩形" fill="#CED7E2" fill-rule="evenodd" stroke="none" />
            <path d="M0 28L0 14C0 10.134 1.36683 6.83418 4.1005 4.1005C6.83418 1.36683 10.134 0 14 0L82 0C85.866 0 89.1658 1.36683 91.8995 4.1005C94.6332 6.83418 96 10.134 96 14L96 146C96 149.866 94.6332 153.166 91.8995 155.899C89.1658 158.633 85.866 160 82 160L14 160C10.134 160 6.83418 158.633 4.1005 155.899C1.36683 153.166 0 149.866 0 146L0 28Z" transform="translate(69 23)" id="矩形备份-25" fill="#CED7E2" fill-opacity="0.3" fill-rule="evenodd" stroke="none" />
            <path d="M0 20L0 10C0 7.23858 0.976311 4.88155 2.92893 2.92893C4.88155 0.976311 7.23858 0 10 0L86 0C88.7614 0 91.1184 0.976311 93.0711 2.92893C95.0237 4.88155 96 7.23858 96 10L96 152C96 154.761 95.0237 157.118 93.0711 159.071C91.1184 161.024 88.7614 162 86 162L10 162C7.23858 162 4.88155 161.024 2.92893 159.071C0.976311 157.118 0 154.761 0 152L0 20Z" transform="translate(69 6)" id="矩形#1" fill="#FFFFFF" fill-rule="evenodd" stroke="none" />
            <path d="M9.70641 5.70782L5.70781 9.70642C5.31636 10.0979 4.68263 10.0979 4.29219 9.70642L0.293587 5.70782C-0.0978623 5.31737 -0.0978623 4.68364 0.293587 4.29218L4.29219 0.293587C4.68263 -0.0978623 5.31636 -0.0978623 5.70781 0.293587L9.70641 4.29218C10.0979 4.68364 10.0979 5.31737 9.70641 5.70782" transform="translate(0 86)" id="Fill-9" fill="#BBD9FA" fill-rule="evenodd" stroke="none" />
            <path d="M16.7148 9.18765L9.18764 16.7138C8.80832 17.0941 8.19168 17.0941 7.81236 16.7138L0.285221 9.18765C-0.0950737 8.80734 -0.0950737 8.19168 0.285221 7.81139L7.81236 0.285217C8.19168 -0.0950775 8.80832 -0.0950775 9.18764 0.285217L16.7148 7.81139C17.0951 8.19168 17.0951 8.80734 16.7148 9.18765" transform="translate(20 114)" id="Fill-11" fill="#FFBBD8" fill-rule="evenodd" stroke="none" />
            <path d="M1.5 0C2.32901 0 3 0.672001 3 1.5C3 2.28024 2.40561 2.92051 1.64455 2.99314L1.5 3C0.671997 3 0 2.329 0 1.5C0 0.672001 0.671997 0 1.5 0L1.5 0ZM22.5 0C23.328 0 24 0.672001 24 1.5C24 2.329 23.328 3 22.5 3L6.5 3C5.67099 3 5 2.329 5 1.5C5 0.672001 5.67099 0 6.5 0L22.5 0L22.5 0Z" transform="translate(105 10)" id="形状结合" fill="#ADCBDF" fill-rule="evenodd" stroke="none" />
            <path d="M0 0C1.187 1.673 2.523 3.17101 3.955 4.5" transform="translate(179.3266 136.6778)" id="Stroke-25" fill="none" fill-rule="evenodd" stroke="#C4CBDA" stroke-width="1" stroke-linecap="round" />
            <path d="M0 12L0 6C0 4.34315 0.585786 2.92893 1.75736 1.75736C2.92893 0.585786 4.34315 0 6 0L102 0C103.657 0 105.071 0.585786 106.243 1.75736C107.414 2.92893 108 4.34315 108 6L108 32C108 33.6569 107.414 35.0711 106.243 36.2426C105.071 37.4142 103.657 38 102 38L6 38C4.34315 38 2.92893 37.4142 1.75736 36.2426C0.585786 35.0711 0 33.6569 0 32L0 12Z" transform="translate(23 23)" id="矩形#2" fill="#1A66FF" fill-rule="evenodd" stroke="none" />
            <path d="M0 12L0 6C0 4.34315 0.585786 2.92893 1.75736 1.75736C2.92893 0.585786 4.34315 0 6 0L92 0C93.6569 0 95.0711 0.585786 96.2426 1.75736C97.4142 2.92893 98 4.34315 98 6L98 28.4815C98 30.1383 97.4142 31.5525 96.2426 32.7241C95.0711 33.8957 93.6569 34.4815 92 34.4815L6 34.4815C4.34315 34.4815 2.92893 33.8957 1.75736 32.7241C0.585786 31.5525 0 30.1383 0 28.4815L0 12Z" transform="translate(28 31)" id="矩形#3" fill="#1A66FF" fill-opacity="0.3" fill-rule="evenodd" stroke="none" />
            <g id="编组-33" transform="translate(30 29)">
              <g id="Fill-32">
                <path d="M18 9C18 13.971 13.971 18 9 18C4.029 18 0 13.971 0 9C0 4.029 4.029 0 9 0C13.971 0 18 4.029 18 9" id="Fill-29" fill="#FFFFFF" fill-rule="evenodd" stroke="none" />
              </g>
              <path d="M6.85216 5.353C7.55725 4.803 8.01792 3.959 8.01792 3C8.01792 1.344 6.66608 0 5.00041 0C3.33374 0 1.98291 1.344 1.98291 3C1.98291 3.959 2.44358 4.803 3.14766 5.353C1.45987 6.018 0.21867 7.565 0.00341797 9.424C-0.030777 9.728 0.195534 10 0.503319 10L9.49651 10C9.80429 10 10.0316 9.728 9.9964 9.424C9.78216 7.565 8.54096 6.018 6.85216 5.353" transform="translate(4 4)" id="Fill-31" fill="#F2F5F9" fill-rule="evenodd" stroke="none" />
            </g>
            <path d="M9.311 18.622L9.311 18.622C4.16901 18.622 0 14.454 0 9.31101C0 4.169 4.16901 0 9.311 0C14.454 0 18.623 4.169 18.623 9.31101C18.623 14.454 14.454 18.622 9.311 18.622" transform="translate(145 31)" id="Fill-65" fill="#1A66FF" fill-opacity="0.3" fill-rule="evenodd" stroke="none" />
            <path d="M9.312 18.622L9.312 18.622C4.16901 18.622 0 14.453 0 9.31C0 4.168 4.16901 0 9.312 0C14.454 0 18.623 4.168 18.623 9.31C18.623 14.453 14.454 18.622 9.312 18.622" transform="translate(164 160)" id="Fill-67" fill="#FFA900" fill-rule="evenodd" stroke="none" />
            <path d="M7.00038 14L7.00038 14C3.13409 14 0 10.8657 0 6.99924C0 3.1335 3.13409 0 7.00038 0C10.8659 0 14 3.1335 14 6.99924C14 10.8657 10.8659 14 7.00038 14" transform="translate(166.3115 167.311)" id="Fill-67#1" fill="#FFA900" fill-opacity="0.3" fill-rule="evenodd" stroke="none" />
            <path d="M4.5 4.98401L4.765 3.52301C4.62801 3.28601 4.464 3.186 4.22701 3.186C3.56 3.186 3.14 4.071 3.14 4.737C3.14 5.248 3.38701 5.48601 3.743 5.48601C3.98001 5.48601 4.20801 5.34801 4.5 4.98401M0 4.74701C0 1.88 2.10001 0 4.573 0C6.77301 0 8.16901 1.48801 8.16901 3.61501C8.16901 5.48601 6.937 6.43501 5.88701 6.43501C5.30301 6.43501 4.82901 6.16101 4.729 5.65001L4.71001 5.65001C4.409 6.05101 3.88901 6.343 3.46001 6.343C2.675 6.343 2.127 5.759 2.127 4.81001C2.127 3.59601 3.00301 2.31001 4.19 2.31001C4.537 2.31001 4.811 2.464 4.98401 2.82001L5.002 2.82001L5.14801 2.39101L5.979 2.39101L5.53101 4.619C5.367 5.285 5.53101 5.595 6.024 5.595C6.65401 5.595 7.31101 4.847 7.31101 3.66C7.31101 2.11801 6.453 0.831009 4.464 0.831009C2.68401 0.831009 0.914001 2.35501 0.914001 4.71001C0.914001 6.74501 2.3 7.76701 3.96201 7.76701C4.519 7.76701 5.121 7.593 5.55901 7.347L5.86 8.095C5.239 8.44301 4.58301 8.597 3.85201 8.597C1.79001 8.597 0 7.32901 0 4.74701" transform="translate(169.2271 165.012)" id="Fill-69" fill="#F2F5F9" fill-rule="evenodd" stroke="none" />
            <path d="M3.718 5.10899L3.922 3.466L2.411 3.466L2.207 5.10899L3.718 5.10899L3.718 5.10899ZM1.03099 6.24899L0 6.24899L0 5.10899L1.16299 5.10899L1.367 3.466L0.276001 3.466L0.276001 2.315L1.511 2.315L1.811 0L2.83099 0L2.55499 2.315L4.06599 2.315L4.366 0L5.397 0L5.121 2.315L6.201 2.315L6.201 3.466L4.97701 3.466L4.774 5.10899L5.925 5.10899L5.925 6.24899L4.642 6.24899L4.33 8.851L3.27499 8.851L3.586 6.24899L2.08701 6.24899L1.763 8.851L0.720001 8.851L1.03099 6.24899L1.03099 6.24899Z" transform="translate(151.2106 35.886)" id="Fill-71" fill="#F2F5F9" fill-rule="evenodd" stroke="none" />
            <g id="编组-34" transform="translate(57 29)">
              <path d="M0 1.5C0 1.08579 0.146447 0.732233 0.43934 0.43934C0.732233 0.146447 1.08579 0 1.5 0L63.5 0C63.9142 0 64.2678 0.146447 64.5607 0.43934C64.8536 0.732233 65 1.08579 65 1.5C65 1.91421 64.8536 2.26777 64.5607 2.56066C64.2678 2.85355 63.9142 3 63.5 3L1.5 3C1.08579 3 0.732233 2.85355 0.43934 2.56066C0.146447 2.26777 0 1.91421 0 1.5L0 1.5Z" id="矩形#4" fill="#FFFFFF" fill-rule="evenodd" stroke="none" />
              <path d="M0 1.5C0 1.08579 0.146447 0.732233 0.43934 0.43934C0.732233 0.146447 1.08579 0 1.5 0L63.5 0C63.9142 0 64.2678 0.146447 64.5607 0.43934C64.8536 0.732233 65 1.08579 65 1.5C65 1.91421 64.8536 2.26777 64.5607 2.56066C64.2678 2.85355 63.9142 3 63.5 3L1.5 3C1.08579 3 0.732233 2.85355 0.43934 2.56066C0.146447 2.26777 0 1.91421 0 1.5L0 1.5Z" transform="translate(0 11)" id="矩形备份-35" fill="#FFFFFF" fill-rule="evenodd" stroke="none" />
              <path d="M0 1.5C0 1.08579 0.146447 0.732233 0.43934 0.43934C0.732233 0.146447 1.08579 0 1.5 0L42.5 0C42.9142 0 43.2678 0.146447 43.5607 0.43934C43.8536 0.732233 44 1.08579 44 1.5C44 1.91421 43.8536 2.26777 43.5607 2.56066C43.2678 2.85355 42.9142 3 42.5 3L1.5 3C1.08579 3 0.732233 2.85355 0.43934 2.56066C0.146447 2.26777 0 1.91421 0 1.5L0 1.5Z" transform="translate(0 22)" id="矩形备份-36" fill="#FFFFFF" fill-rule="evenodd" stroke="none" />
            </g>
            <path d="M0 2C0 1.44772 0.195262 0.976311 0.585786 0.585786C0.976311 0.195262 1.44772 0 2 0L18 0C18.5523 0 19.0237 0.195262 19.4142 0.585786C19.8047 0.976311 20 1.44772 20 2C20 2.55228 19.8047 3.02369 19.4142 3.41421C19.0237 3.80474 18.5523 4 18 4L2 4C1.44772 4 0.976311 3.80474 0.585786 3.41421C0.195262 3.02369 0 2.55228 0 2L0 2Z" transform="translate(77 69)" id="矩形#5" fill="#1A66FF" fill-rule="evenodd" stroke="none" />
            <path d="M0 2C0 1.44772 0.195262 0.976311 0.585786 0.585786C0.976311 0.195262 1.44772 0 2 0L54 0C54.5523 0 55.0237 0.195262 55.4142 0.585786C55.8047 0.976311 56 1.44772 56 2C56 2.55228 55.8047 3.02369 55.4142 3.41421C55.0237 3.80474 54.5523 4 54 4L2 4C1.44772 4 0.976311 3.80474 0.585786 3.41421C0.195262 3.02369 0 2.55228 0 2L0 2Z" transform="translate(102 69)" id="矩形备份-38" fill="#E5ECF5" fill-rule="evenodd" stroke="none" />
            <path d="M0 2C0 1.44772 0.195262 0.976311 0.585786 0.585786C0.976311 0.195262 1.44772 0 2 0L50 0C50.5523 0 51.0237 0.195262 51.4142 0.585786C51.8047 0.976311 52 1.44772 52 2C52 2.55228 51.8047 3.02369 51.4142 3.41421C51.0237 3.80474 50.5523 4 50 4L2 4C1.44772 4 0.976311 3.80474 0.585786 3.41421C0.195262 3.02369 0 2.55228 0 2L0 2Z" transform="translate(106 156)" id="矩形#6" fill="#33C8CD" fill-rule="evenodd" stroke="none" />
            <path d="M0 0L13.04 9.09188C20.4272 14.2424 22.2403 24.4062 17.0898 31.7933C16.9839 31.9451 16.8755 32.0951 16.7646 32.2432C10.4535 40.6685 8.81609 51.7081 12.41 61.6025L21 85.2514L21 85.2514" transform="translate(167 47.905525)" id="路径-16" fill="none" fill-rule="evenodd" stroke="#E4EDF5" stroke-width="2" stroke-linecap="round" stroke-dasharray="9 9" />
            <g id="形状结合#1" transform="translate(77 81)">
              <path d="M0 4L0 2C0 1.44772 0.195262 0.976311 0.585786 0.585786C0.976311 0.195262 1.44772 0 2 0L79 0C79.5523 0 80.0237 0.195262 80.4142 0.585786C80.8047 0.976311 81 1.44772 81 2L81 47C81 47.5523 80.8047 48.0237 80.4142 48.4142C80.0237 48.8047 79.5523 49 79 49L2 49C1.44772 49 0.976311 48.8047 0.585786 48.4142C0.195262 48.0237 0 47.5523 0 47L0 4Z" id="path-4" fill="#E5ECF5" fill-rule="evenodd" stroke="none" />
              <g id="Mask-group">
                <path d="M0 4L0 2C0 1.44772 0.195262 0.976311 0.585786 0.585786C0.976311 0.195262 1.44772 0 2 0L79 0C79.5523 0 80.0237 0.195262 80.4142 0.585786C80.8047 0.976311 81 1.44772 81 2L81 47C81 47.5523 80.8047 48.0237 80.4142 48.4142C80.0237 48.8047 79.5523 49 79 49L2 49C1.44772 49 0.976311 48.8047 0.585786 48.4142C0.195262 48.0237 0 47.5523 0 47L0 4Z" id="path-4" fill="none" fill-rule="evenodd" stroke="none" />
                <g clip-path="url(#mask_1)">
                  <path d="M37.1026 11.3337L37.2529 11.4756L58.609 32.8322L70.1985 21.2423C71.5257 19.9151 73.6503 19.8714 75.0312 21.1106L75.1713 21.2433L105.014 51.0863L102.884 53.217L73.0406 23.3741C72.8661 23.1997 72.5955 23.1802 72.3997 23.3158L72.3302 23.3739L60.74 34.9632L68.517 42.7397C69.8414 44.0641 69.8891 46.1816 68.6599 47.5622L68.518 47.7125L37.2672 78.9633C35.9434 80.2871 33.8259 80.334 32.4448 79.1041L32.2945 78.9622L1.03043 47.6981C-0.294006 46.3737 -0.341751 44.2562 0.887527 42.8756L1.02937 42.7254L32.2802 11.4746C33.604 10.1507 35.7215 10.1039 37.1026 11.3337L37.1026 11.3337ZM34.4813 13.5481L34.4118 13.6062L3.16101 44.857C2.98667 45.0313 2.96735 45.302 3.10302 45.4978L3.16116 45.5674L34.4252 76.8315C34.5996 77.0059 34.8703 77.0253 35.0661 76.8897L35.1356 76.8316L66.3864 45.5808C66.5607 45.4065 66.58 45.1358 66.4444 44.94L66.3862 44.8704L35.1222 13.6064C34.9478 13.432 34.6771 13.4125 34.4813 13.5481L34.4813 13.5481ZM63.9024 0C66.1214 0 67.9202 1.79958 67.9202 4.01945C67.9202 6.23935 66.1214 8.03893 63.9024 8.03893C61.6835 8.03893 59.8846 6.23935 59.8846 4.01945C59.8846 1.79958 61.6835 0 63.9024 0L63.9024 0Z" transform="translate(-7.0073853 6)" id="Shape" fill="#FFFFFF" fill-rule="evenodd" stroke="none" />
                </g>
              </g>
            </g>
            <path d="M0 12L0 6C0 4.34315 0.585786 2.92893 1.75736 1.75736C2.92893 0.585786 4.34315 0 6 0L84 0C85.6569 0 87.0711 0.585786 88.2426 1.75736C89.4142 2.92893 90 4.34315 90 6L90 28C90 29.6569 89.4142 31.0711 88.2426 32.2426C87.0711 33.4142 85.6569 34 84 34L6 34C4.34315 34 2.92893 33.4142 1.75736 32.2426C0.585786 31.0711 0 29.6569 0 28L0 12Z" transform="translate(114 114)" id="矩形#7" fill="#33C8CD" fill-rule="evenodd" stroke="none" />
            <path d="M0 12L0 6C0 4.34315 0.585786 2.92893 1.75736 1.75736C2.92893 0.585786 4.34315 0 6 0L68 0C69.6569 0 71.0711 0.585786 72.2426 1.75736C73.4142 2.92893 74 4.34315 74 6L74 21.9556C74 23.6124 73.4142 25.0266 72.2426 26.1982C71.0711 27.3698 69.6569 27.9556 68 27.9556L6 27.9556C4.34315 27.9556 2.92893 27.3698 1.75736 26.1982C0.585786 25.0266 0 23.6124 0 21.9556L0 12Z" transform="translate(122 123.02222)" id="矩形#8" fill="#33C8CD" fill-opacity="0.3" fill-rule="evenodd" stroke="none" />
            <g id="编组-35" transform="translate(179 122)">
              <path d="M18 9C18 13.971 13.97 18 9 18C4.02901 18 0 13.971 0 9C0 4.02901 4.02901 0 9 0C13.97 0 18 4.02901 18 9" id="Fill-41" fill="#FFFFFF" fill-rule="evenodd" stroke="none" />
              <path d="M6.85277 5.353C7.5569 4.804 8.01862 3.959 8.01862 3C8.01862 1.34399 6.66667 0 5.00092 0C3.33313 0 1.98322 1.34399 1.98322 3C1.98322 3.959 2.44391 4.804 3.14804 5.353C1.45914 6.019 0.218857 7.56599 0.00360107 9.424C-0.0316162 9.729 0.195725 10 0.503525 10L9.49628 10C9.80508 10 10.0324 9.729 9.9962 9.424C9.78195 7.56599 8.54167 6.019 6.85277 5.353" transform="translate(4 4)" id="Fill-43" fill="#F2F5F9" fill-rule="evenodd" stroke="none" />
            </g>
            <g id="编组-36" transform="translate(125 124)">
              <path d="M0 1.5C0 1.08579 0.146447 0.732233 0.43934 0.43934C0.732233 0.146447 1.08579 0 1.5 0L40.5 0C40.9142 0 41.2678 0.146447 41.5607 0.43934C41.8536 0.732233 42 1.08579 42 1.5C42 1.91421 41.8536 2.26777 41.5607 2.56066C41.2678 2.85355 40.9142 3 40.5 3L1.5 3C1.08579 3 0.732233 2.85355 0.43934 2.56066C0.146447 2.26777 0 1.91421 0 1.5L0 1.5Z" id="矩形#9" fill="#FFFFFF" fill-rule="evenodd" stroke="none" />
              <path d="M0 1.5C0 1.08579 0.146447 0.732233 0.43934 0.43934C0.732233 0.146447 1.08579 0 1.5 0L28.5 0C28.9142 0 29.2678 0.146447 29.5607 0.43934C29.8536 0.732233 30 1.08579 30 1.5C30 1.91421 29.8536 2.26777 29.5607 2.56066C29.2678 2.85355 28.9142 3 28.5 3L1.5 3C1.08579 3 0.732233 2.85355 0.43934 2.56066C0.146447 2.26777 0 1.91421 0 1.5L0 1.5Z" transform="translate(0 11)" id="矩形备份-37" fill="#FFFFFF" fill-rule="evenodd" stroke="none" />
            </g>
            <path d="M0 8L0 4C0 2.89543 0.390524 1.95262 1.17157 1.17157C1.95262 0.390524 2.89543 0 4 0L34 0C35.1046 0 36.0474 0.390524 36.8284 1.17157C37.6095 1.95262 38 2.89543 38 4L38 34C38 35.1046 37.6095 36.0474 36.8284 36.8284C36.0474 37.6095 35.1046 38 34 38L4 38C2.89543 38 1.95262 37.6095 1.17157 36.8284C0.390524 36.0474 0 35.1046 0 34L0 8Z" transform="translate(45 124)" id="矩形#10" fill="#42D77B" fill-rule="evenodd" stroke="none" />
            <path d="M0 8L0 4C0 2.89543 0.390524 1.95262 1.17157 1.17157C1.95262 0.390524 2.89543 0 4 0L26 0C27.1046 0 28.0474 0.390524 28.8284 1.17157C29.6095 1.95262 30 2.89543 30 4L30 26C30 27.1046 29.6095 28.0474 28.8284 28.8284C28.0474 29.6095 27.1046 30 26 30L4 30C2.89543 30 1.95262 29.6095 1.17157 28.8284C0.390524 28.0474 0 27.1046 0 26L0 8Z" transform="translate(49 136)" id="矩形#11" fill="#42D77B" fill-opacity="0.3" fill-rule="evenodd" stroke="none" />
            <path d="M20.8651 13.0049C20.2241 13.0286 19.686 12.5175 19.6639 11.8642C19.6406 11.2109 20.141 10.6626 20.7821 10.6389L20.8651 10.6389C21.5061 10.6626 22.0077 11.2109 21.9844 11.8642C21.9623 12.4848 21.474 12.9824 20.8651 13.0049L20.8651 13.0049L20.8651 13.0049ZM15.0714 13.0049C14.4304 13.0095 13.9079 12.4837 13.9045 11.8304C13.9001 11.1782 14.4171 10.6445 15.0571 10.6411L15.0681 10.6411C15.7092 10.6434 16.2262 11.1748 16.224 11.827C16.2218 12.4758 15.7069 13.0016 15.0714 13.0049L15.0714 13.0049L15.0714 13.0049ZM26 14.5248C26 10.6998 22.4428 7.60146 18.0519 7.60146C13.6621 7.60146 10.1026 10.7032 10.1026 14.5248C10.1026 18.3486 13.6621 21.4538 18.0519 21.4538C19.2476 21.4538 20.378 21.2213 21.3976 20.8095C22.445 21.3804 23.5875 21.9807 23.6451 21.9987C23.685 22.0427 23.4591 20.9246 23.2156 19.7952C24.9172 18.5202 26 16.6359 26 14.5248L26 14.5248L26 14.5248ZM5.79475 6.75635C5.15483 6.75748 4.63336 6.22942 4.63226 5.57613C4.63115 4.92397 5.15041 4.39253 5.79033 4.3914L5.80139 4.3914C6.44132 4.3959 6.95724 4.92961 6.95282 5.58177C6.94949 6.23055 6.43246 6.75409 5.79697 6.75635L5.79475 6.75635L5.79475 6.75635ZM12.9159 4.39366C13.5569 4.42525 14.0496 4.98264 14.0175 5.6348C13.9887 6.24184 13.5115 6.72813 12.9159 6.75749C12.2759 6.76086 11.7534 6.23393 11.7511 5.58177C11.7478 4.92848 12.2638 4.39703 12.9048 4.39366L12.9159 4.39366L12.9159 4.39366ZM17.6367 7.09483C17.9135 7.09483 18.1858 7.10725 18.4604 7.13434C17.8393 3.10399 13.9632 0 9.27338 0C4.15287 0 0 3.70651 0 8.27618C0 10.8307 1.29977 13.1167 3.3358 14.6365C3.07674 15.9657 2.75345 17.7134 2.80106 17.6536C2.87192 17.6299 4.66437 16.6133 5.79033 15.9487C6.86536 16.3369 8.04114 16.5535 9.27449 16.5535C9.40402 16.5535 9.53024 16.5501 9.65977 16.5479C9.51584 15.9702 9.44276 15.3767 9.44388 14.7809C9.44055 10.5362 13.1096 7.09709 17.6367 7.09709L17.6367 7.09483L17.6367 7.09483Z" transform="translate(51 132)" id="Fill-55" fill="#FFFFFF" fill-rule="evenodd" stroke="none" />
          </g>
        </g>
      </g>
    </g>
  </g>
</svg>