<svg t="1585750419728" class="icon" viewBox="0 0 1024 1024" version="1.1" xmlns="http://www.w3.org/2000/svg" p-id="8162" width="200" height="200">
                <path d="M854.6 288.7c6 6 9.4 14.1 9.4 22.6V928c0 17.7-14.3 32-32 32H192c-17.7 0-32-14.3-32-32V96c0-17.7 14.3-32 32-32h424.7c8.5 0 16.7 3.4 22.7 9.4l215.2 215.3zM790.2 326L602 137.8V326h188.2zM575.341 477.839l-61.216 102.307-61.839-102.351a12 12 0 0 0-10.27-5.795h-38.437a12 12 0 0 0-6.406 1.853c-5.604 3.538-7.279 10.949-3.741 16.553l82.333 130.422-83.449 132.787a12 12 0 0 0-1.84 6.385c0 6.627 5.373 12 12 12h34.466a12 12 0 0 0 10.208-5.692l62.707-101.474 62.29 101.445A12 12 0 0 0 582.375 772h37.486a12 12 0 0 0 6.484-1.903c5.577-3.58 7.195-11.004 3.614-16.58l-83.831-130.551 85.296-132.47a12 12 0 0 0 1.91-6.496c0-6.627-5.372-12-12-12h-35.695a12 12 0 0 0-10.297 5.839z" p-id="8163" fill="#27d661"></path>
              </svg>