<?xml version="1.0" encoding="utf-8"?>
<svg width="140px" height="140px" viewBox="0 0 140 140" version="1.1" xmlns:xlink="http://www.w3.org/1999/xlink" xmlns="http://www.w3.org/2000/svg">
  <defs>
    <path d="M0 0L140 0L140 140L0 140L0 0Z" id="path_1" />
    <clipPath id="mask_1">
      <use xlink:href="#path_1" />
    </clipPath>
  </defs>
  <g id="file-icon-video">
    <path d="M0 0L140 0L140 140L0 140L0 0Z" id="Background" fill="none" fill-rule="evenodd" stroke="none" />
    <g clip-path="url(#mask_1)">
      <path d="M94.9648 30.7207L65.543 1.28516C64.7227 0.464844 63.6016 0 62.4395 0L4.375 0C1.95508 0 0 1.95508 0 4.375L0 118.125C0 120.545 1.95508 122.5 4.375 122.5L91.875 122.5C94.2949 122.5 96.25 120.545 96.25 118.125L96.25 33.8105C96.25 32.6484 95.7851 31.541 94.9648 30.7207L94.9648 30.7207ZM60.4297 35.8202L60.4297 10.0898L86.1602 35.8202L60.4297 35.8202L60.4297 35.8202ZM63.1034 66.0617L70.1376 62.0115C71.3081 61.3356 72.7754 62.1819 72.7754 63.5337L72.7754 83.5427C72.7754 84.8891 71.3081 85.7354 70.1376 85.0595L63.1034 81.0093L63.1034 89.3624C63.1034 91.3023 61.5262 92.8795 59.5863 92.8795L27.0532 92.8795C25.1133 92.8795 23.5361 91.3023 23.5361 89.3624L23.5361 57.7086C23.5361 55.7687 25.1133 54.1915 27.0532 54.1915L59.5863 54.1915C61.5262 54.1915 63.1034 55.7687 63.1034 57.7086L63.1034 66.0617ZM27.4928 88.9228L59.1466 88.9228L59.1466 58.1483L27.4928 58.1483L27.4928 88.9228ZM37.6045 65.1823L31.4496 65.1823C31.2078 65.1823 31.0099 64.9845 31.0099 64.7427L31.0099 62.1049C31.0099 61.8631 31.2078 61.6652 31.4496 61.6652L37.6045 61.6652C37.8463 61.6652 38.0441 61.8631 38.0441 62.1049L38.0441 64.7427C38.0441 64.9845 37.8463 65.1823 37.6045 65.1823ZM63.1034 76.4591L68.8187 79.7454L68.8187 67.3257L63.1034 70.6175L63.1034 76.4591Z" transform="translate(21.875 8.75)" id="Shape" fill="#652D90" fill-rule="evenodd" stroke="none" />
    </g>
  </g>
</svg>