<?xml version="1.0" encoding="utf-8"?>
<svg width="914px" height="184px" viewBox="0 0 914 184" version="1.1" xmlns:xlink="http://www.w3.org/1999/xlink" xmlns="http://www.w3.org/2000/svg">
  <defs>
    <linearGradient x1="0.4997761" y1="0.99994034" x2="0.4997761" y2="4.0751684E-06" id="gradient_1">
      <stop offset="0" stop-color="#FF6D00" />
      <stop offset="1" stop-color="#FFB300" />
    </linearGradient>
  </defs>
  <g id="v1-3">
    <path d="M168.706 10.5413C161.302 3.52544 151.414 -0.2614 141.218 0.0140409C131.021 0.289482 121.352 4.60463 114.338 12.01C103.779 23.1685 102.149 37.4345 108.194 49.0407L120.669 72.9697C125.436 82.6742 122.827 94.3874 114.391 101.151C105.955 107.914 93.955 107.914 85.5193 101.151C77.0836 94.3874 74.4742 82.6742 79.2413 72.9697L91.761 49.0407L91.761 49.0407C97.7074 37.6315 96.3372 23.3297 85.6176 12.01C78.6031 4.60463 68.9339 0.289482 58.7375 0.0140409C48.5412 -0.2614 38.6531 3.52544 31.2491 10.5413C1.51868 38.6906 -8.04858 82.1196 7.1014 120.156C22.2514 158.192 59.0576 183.15 100 183.15C140.942 183.15 177.749 158.192 192.899 120.156C208.049 82.1196 198.481 38.6906 168.751 10.5413L168.706 10.5413L168.706 10.5413Z" id="路径" fill="url(#gradient_1)" fill-rule="evenodd" stroke="none" />
    <path d="M618.664 93.16L630.36 93.16L624.648 1.49597L609.552 1.49597L593.232 45.832C589.152 57.392 585.888 67.592 583.44 76.84L583.168 76.84C580.72 67.32 577.728 57.12 573.92 45.832L558.28 1.49597L543.184 1.49597L536.792 93.16L548.08 93.16L550.528 53.856C551.344 40.12 552.024 24.752 552.296 13.328L552.568 13.328C555.152 24.208 558.688 36.04 563.04 48.96L578 92.616L586.976 92.616L603.16 48.144C607.784 35.632 611.456 23.936 614.72 13.328L614.992 13.328C614.992 24.616 615.808 40.256 616.488 52.904L618.664 93.16ZM466.072 93.16L477.904 93.16L477.904 53.448L489.056 53.448C499.8 53.856 504.832 58.616 507.552 71.264C510 82.688 512.04 90.44 513.536 93.16L525.776 93.16C524.008 89.624 521.832 80.784 518.84 68C516.528 58.48 512.312 51.952 505.376 49.504L505.376 49.096C514.896 45.832 522.648 37.808 522.648 25.84C522.648 18.632 519.928 12.376 515.44 8.43204C509.728 3.26404 501.432 0.81604 488.784 0.81604C480.76 0.81604 472.056 1.63203 466.072 2.85604L466.072 93.16ZM477.904 11.152C479.944 10.608 483.888 10.064 489.6 10.064C502.112 10.064 510.68 15.232 510.68 27.064C510.68 37.536 502.656 44.472 490.008 44.472L477.904 44.472L477.904 11.152ZM448.8 80.648C444.04 82.96 436.696 84.456 429.352 84.456C407.184 84.456 394.264 70.176 394.264 47.736C394.264 23.8 408.544 10.064 430.032 10.064C437.648 10.064 444.04 11.696 448.392 13.872L451.384 4.07999C448.256 2.58398 440.912 0.135986 429.624 0.135986C401.2 0.135986 381.752 19.448 381.752 48.144C381.752 78.2 401.064 94.52 426.904 94.52C438.056 94.52 446.896 92.344 451.112 90.168L448.8 80.648ZM315.52 88.536C320.416 91.8 330.072 94.52 338.912 94.52C360.536 94.52 370.872 82.144 370.872 68.136C370.872 54.672 363.12 47.328 347.616 41.208C334.968 36.312 329.392 32.096 329.392 23.664C329.392 17.408 334.152 9.92798 346.664 9.92798C354.96 9.92798 361.08 12.512 363.936 14.28L367.2 4.48798C363.256 2.31198 356.32 0.135986 347.072 0.135986C329.256 0.135986 317.424 10.744 317.424 25.024C317.424 37.808 326.672 45.696 341.632 50.864C354.008 55.488 358.904 60.52 358.904 69.088C358.904 78.336 351.832 84.592 339.728 84.592C331.568 84.592 323.952 82.008 318.648 78.744L315.52 88.536ZM244.256 93.16L256.224 93.16L256.224 53.448C256.224 51.544 256.496 49.368 257.04 47.872C259.216 41.208 265.336 35.632 273.088 35.632C284.376 35.632 288.32 44.608 288.32 55.216L288.32 93.16L300.288 93.16L300.288 53.856C300.288 31.28 286.144 25.84 277.032 25.84C266.152 25.84 258.536 31.96 255.272 38.08L255 38.08L254.32 27.336L243.712 27.336C244.12 32.776 244.256 38.216 244.256 45.152L244.256 93.16ZM229.024 62.424C229.296 61.064 229.432 59.296 229.432 56.848C229.432 44.744 223.856 25.84 202.368 25.84C183.192 25.84 171.36 41.48 171.36 61.336C171.36 81.056 183.6 94.52 203.728 94.52C214.2 94.52 221.544 92.208 225.76 90.304L223.584 81.736C219.232 83.64 213.928 85.136 205.36 85.136C193.392 85.136 183.192 78.472 182.92 62.424L229.024 62.424ZM183.056 53.856C184.008 45.56 189.176 34.408 201.416 34.408C214.744 34.408 218.008 46.24 217.872 53.856L183.056 53.856ZM98.736 120.088L110.704 120.088L110.704 84.32L110.976 84.32C114.92 90.848 122.4 94.656 131.24 94.656C146.608 94.656 161.16 82.96 161.16 59.296C161.16 39.304 149.192 25.84 133.144 25.84C122.536 25.84 114.648 30.464 109.888 38.624L109.616 38.624L108.936 27.336L98.192 27.336C98.6 33.592 98.736 40.392 98.736 48.824L98.736 120.088ZM110.704 54.944C110.704 53.448 111.112 51.68 111.384 50.184C113.696 41.072 121.448 35.36 129.608 35.36C142.256 35.36 149.056 46.648 149.056 59.84C149.056 74.936 141.712 85.272 129.064 85.272C120.632 85.272 113.288 79.56 111.248 71.264C110.84 69.768 110.704 68 110.704 66.368L110.704 54.944ZM41.344 94.656C64.6 94.656 83.776 77.792 83.776 46.376C83.776 19.176 67.592 0 42.432 0C17.952 0 0 19.04 0 48.144C0 75.888 16.864 94.656 41.208 94.656L41.344 94.656ZM41.752 85C23.12 85 12.512 67.184 12.512 47.872C12.512 28.016 22.304 9.65601 42.024 9.65601C61.744 9.65601 71.264 28.696 71.264 46.92C71.264 67.728 60.656 85 41.888 85L41.752 85Z" transform="translate(282.80154 45.958496)" id="OpenSCRM" fill="#FFFFFF" stroke="none" />
  </g>
</svg>
