<?xml version="1.0" encoding="UTF-8"?>
<svg width="200px" height="200px" viewBox="0 0 200 200" version="1.1" xmlns="http://www.w3.org/2000/svg" xmlns:xlink="http://www.w3.org/1999/xlink">
  <title>logo仅图形</title>
  <defs>
    <linearGradient x1="49.9776114%" y1="99.994036%" x2="49.9776114%" y2="0.000407516851%" id="linearGradient-1">
      <stop stop-color="#FF6D00" offset="0%"></stop>
      <stop stop-color="#FFB300" offset="100%"></stop>
    </linearGradient>
  </defs>
  <g id="页面-1" stroke="none" stroke-width="1" fill="none" fill-rule="evenodd">
    <g id="浅底_混_渐变_竖" transform="translate(-0.463965, 10.999167)" fill="url(#linearGradient-1)" fill-rule="nonzero">
      <path d="M168.70614,10.5412999 C161.302125,3.52543665 151.41405,-0.261401531 141.217683,0.0140397844 C131.021316,0.289481099 121.352105,4.60463337 114.33766,12.0099922 C103.779196,23.1684711 102.149306,37.4344879 108.194228,49.0407389 L120.669157,72.969676 C125.436253,82.6741757 122.826827,94.3874011 114.391116,101.150632 C105.955405,107.913863 93.9550405,107.913863 85.5193293,101.150632 C77.0836181,94.3874011 74.4741927,82.6741757 79.2412888,72.969676 L91.7609947,49.0407389 L91.7609947,49.0407389 C97.7074072,37.6315076 96.3372248,23.329669 85.6175625,12.0099922 C78.6031178,4.60463337 68.9339072,0.289481099 58.73754,0.0140397844 C48.5411728,-0.261401531 38.6530976,3.52543665 31.2490829,10.5412999 C1.51868279,38.6905471 -8.04858541,82.1196399 7.10139936,120.15587 C22.2513841,158.192099 59.0576404,183.150429 100,183.150429 C140.94236,183.150429 177.748616,158.192099 192.898601,120.15587 C208.048585,82.1196399 198.481317,38.6905471 168.750917,10.5412999 L168.70614,10.5412999 Z" id="路径"></path>
    </g>
  </g>
</svg>
