<?xml version="1.0" standalone="no"?><!DOCTYPE svg PUBLIC "-//W3C//DTD SVG 1.1//EN" "http://www.w3.org/Graphics/SVG/1.1/DTD/svg11.dtd"><svg t="1629794152022" class="icon" viewBox="0 0 1222 1024" version="1.1" xmlns="http://www.w3.org/2000/svg" p-id="1191" xmlns:xlink="http://www.w3.org/1999/xlink" width="238.671875" height="200"><defs><style type="text/css"></style></defs><path d="M1122.078849 64.006432c-0.235515-15.139496-11.847411-27.596174-26.894749-28.865905l-403.764275-34.886888c-8.417089-1.131494-16.547464 2.114512-22.660606 7.802703L136.972251 503.927326c-25.625018 23.976416-41.046108 56.323841-43.206699 91.159531-2.303948 35.639511 9.451305 69.205469 33.100049 94.548894l274.804642 294.782428c23.556585 25.153989 57.358058 39.586941 92.854212 39.586941 34.508017 0 67.608065-13.117142 93.135806-36.909242l531.786968-495.865864c6.113141-5.642112 9.405227-13.680329 9.307949-21.959182L1122.078849 64.006432zM967.540277 238.389673c-7.992139 7.47503-18.94869 11.519739-29.710686 10.956551-10.767116-0.517108-21.298717-5.642112-28.538232-13.869765-7.239516-8.227653-11.140867-19.465798-10.623759-30.560586 0.517108-11.145987 5.498755-21.907983 13.490894-29.383013 7.992139-7.47503 18.94869-11.519739 29.710686-10.956551 10.767116 0.517108 21.298717 5.642112 28.538232 13.869765 7.239516 8.227653 11.145987 19.465798 10.623759 30.560586C980.519182 220.096329 975.532415 230.909523 967.540277 238.389673z" p-id="1192" fill="#707070"></path></svg>