<?xml version="1.0" encoding="utf-8"?>
<svg width="27px" height="16px" viewBox="0 0 27 16" version="1.1" xmlns:xlink="http://www.w3.org/1999/xlink" xmlns="http://www.w3.org/2000/svg">
  <g id="ext-text-icon" transform="translate(0.3499756 0.3499756)">
    <path d="M0 4L0 2C0 1.44772 0.195262 0.976311 0.585786 0.585786C0.976311 0.195262 1.44772 0 2 0L23.3 0C23.8523 0 24.3237 0.195262 24.7142 0.585786C25.1047 0.976311 25.3 1.44772 25.3 2L25.3 11.3C25.3 11.8523 25.1047 12.3237 24.7142 12.7142C24.3237 13.1047 23.8523 13.3 23.3 13.3L2 13.3C1.44772 13.3 0.976311 13.1047 0.585786 12.7142C0.195262 12.3237 0 11.8523 0 11.3L0 4Z" transform="translate(0.038757324 0)" id="squre" fill="none" fill-rule="evenodd" stroke="#138AF8" stroke-width="0.7" />
    <g id="外部" fill="#138AF8" transform="translate(0 1.6500244)">
      <path d="M15.0313 2.43555L13.0781 2.43555L13.0781 2.95898L17.2422 2.95898L17.2422 2.43555L15.2266 2.43555L15.6094 2.25586Q15.4609 1.91211 15.1094 1.32617L14.5703 1.57617Q14.8789 2.08398 15.0313 2.43555ZM6.54688 1.38086Q5.96094 3.64648 4.79688 5.41992Q5 5.76367 5.15625 6.08398Q6.02344 4.75586 6.57031 3.37305L8.3125 3.37305Q8.17188 4.67773 7.6875 5.68555Q7.21875 5.31836 6.55469 4.83398L6.15625 5.31055Q6.83594 5.78711 7.38281 6.24805Q6.57031 7.59961 5.05469 8.49805Q5.29688 8.79492 5.46094 9.05273Q8.55469 7.24023 8.96875 3.35742L8.96875 2.7793L6.79688 2.7793Q7 2.19336 7.1875 1.56055L6.54688 1.38086ZM10.3906 1.44336L9.73438 1.44336L9.73438 9.09961L10.3906 9.09961L10.3906 4.31055Q11.4219 5.17773 12.25 5.94336L12.6953 5.36523Q11.8203 4.64648 10.7031 3.7793L10.3906 4.13086L10.3906 1.44336ZM19.5547 7.91992Q20.6094 7.81055 20.6094 6.4668Q20.6094 5.36523 19.5078 4.50586Q20.1484 3.24805 20.4531 2.45898L20.4531 1.81836L17.6406 1.81836L17.6406 9.06055L18.2344 9.06055L18.2344 2.39648L19.8281 2.39648Q19.3047 3.63086 18.7969 4.63867Q19.9609 5.51367 19.9922 6.34961Q20.0326 6.96018 19.76 7.17639Q19.6106 7.29492 19.3672 7.29492Q18.9609 7.29492 18.3906 7.20117Q18.4531 7.60742 18.4922 7.88867Q19.1563 7.9668 19.5547 7.91992ZM15.4063 4.49805L12.9063 4.49805L12.9063 5.02148L17.3828 5.02148L17.3828 4.49805L16.0195 4.49805Q16.4023 3.91992 16.7422 3.32617L16.1641 3.0293Q15.8711 3.69336 15.4063 4.49805ZM14.0781 3.07617L13.6016 3.36523Q14.0156 3.99805 14.2578 4.49023L14.7891 4.18555Q14.4688 3.63086 14.0781 3.07617ZM16.8438 5.83398L13.4688 5.83398L13.4688 9.02148L14.0469 9.02148L14.0469 8.43555L16.2656 8.43555L16.2656 9.01367L16.8438 9.01367L16.8438 5.83398ZM14.0469 6.35742L16.2656 6.35742L16.2656 7.89648L14.0469 7.89648L14.0469 6.35742Z" />
    </g>
  </g>
</svg>