<?xml version="1.0" encoding="utf-8"?>
<svg width="140px" height="140px" viewBox="0 0 140 140" version="1.1" xmlns:xlink="http://www.w3.org/1999/xlink" xmlns="http://www.w3.org/2000/svg">
  <defs>
    <path d="M0 0L140 0L140 140L0 140L0 0Z" id="path_1" />
    <clipPath id="mask_1">
      <use xlink:href="#path_1" />
    </clipPath>
  </defs>
  <g id="file-icon-pdf">
    <path d="M0 0L140 0L140 140L0 140L0 0Z" id="Background" fill="none" fill-rule="evenodd" stroke="none" />
    <g clip-path="url(#mask_1)">
      <path d="M94.9648 30.7207C95.7851 31.541 96.25 32.6484 96.25 33.8105L96.25 118.125C96.25 120.545 94.2949 122.5 91.875 122.5L4.375 122.5C1.95508 122.5 0 120.545 0 118.125L0 4.375C0 1.95508 1.95508 0 4.375 0L62.4395 0C63.6016 0 64.7227 0.464844 65.543 1.28516L94.9648 30.7207L94.9648 30.7207ZM86.1602 35.8203L60.4297 10.0899L60.4297 35.8203L86.1602 35.8203L86.1602 35.8203ZM64.6976 78.3748C62.6231 78.308 60.4164 78.4664 57.9095 78.7801C54.5875 76.731 52.3514 73.9153 50.7627 69.7803C50.801 69.6228 50.8803 69.2965 50.908 69.1814C50.9728 68.9137 51.0266 68.6901 51.078 68.4725C51.6649 65.9938 51.9824 64.1853 52.076 62.3619C52.1468 60.9846 52.0705 59.7139 51.8262 58.5371C51.3753 55.9963 49.5767 54.5103 47.3116 54.4183C45.1999 54.3325 43.2581 55.5111 42.7615 57.3404C41.9531 60.2951 42.4265 64.1859 44.1396 70.8184C41.957 76.0213 39.0739 82.1197 37.1392 85.521C34.5573 86.8526 32.5449 88.0646 30.8566 89.4075C28.6277 91.1802 27.2363 93.0018 26.8526 94.9181C26.6674 95.804 26.9472 96.9642 27.5854 97.9138C28.3095 98.991 29.4013 99.69 30.7101 99.7917C34.0122 100.048 38.0697 96.6439 42.5486 88.9556C42.9991 88.8066 43.4756 88.647 44.0561 88.4511C44.3737 88.3441 45.4867 87.9674 45.6844 87.9007C46.7127 87.5534 47.459 87.3046 48.1967 87.0645C51.3954 86.0238 53.8153 85.3652 56.0184 84.9914C59.8429 87.0385 64.2648 88.3815 67.2428 88.3815C69.7008 88.3815 71.3616 87.1074 71.9616 85.1023C72.4889 83.3406 72.0702 81.2983 70.9399 80.169C69.7696 79.0192 67.6176 78.469 64.6976 78.3748L64.6976 78.3748ZM30.7935 95.9323L30.7935 95.883L30.8107 95.8368C30.985 95.3691 31.2423 94.8787 31.5763 94.366C32.162 93.4669 32.9672 92.5203 33.9651 91.5134C34.501 90.9726 35.0591 90.447 35.7137 89.8563C35.8604 89.7239 36.7951 88.8912 36.97 88.7284L38.498 87.3056L37.3878 89.0739C35.7026 91.7588 34.1804 93.6923 32.8743 94.9534C32.3948 95.4164 31.972 95.76 31.6314 95.9794C31.491 96.0699 31.3695 96.1358 31.2742 96.1741C31.2182 96.1964 31.1688 96.2108 31.1197 96.2154C31.0677 96.2215 31.0151 96.214 30.967 96.1935C30.8617 96.1494 30.7933 96.0464 30.7935 95.9323L30.7935 95.9323ZM48.011 66.0908L47.702 66.6386L47.512 66.0391C47.0862 64.6953 46.7755 62.6702 46.6895 60.8442C46.5916 58.7665 46.7565 57.5188 47.4122 57.5188C48.3337 57.5188 48.7563 58.9965 48.7898 61.2175C48.8193 63.1698 48.5122 65.2017 48.011 66.0908L48.011 66.0908ZM47.2166 74.0839L47.4264 73.5302L47.7118 74.049C49.3101 76.9536 51.3838 79.3765 53.6643 81.0648L54.1558 81.4287L53.557 81.5523C51.3246 82.0133 49.2443 82.7085 46.4011 83.8549C46.6983 83.7351 43.4448 85.0666 42.6225 85.3819L41.9044 85.6571L42.2875 84.9903C43.976 82.0514 45.5357 78.52 47.2165 74.0839L47.2166 74.0839ZM68.7671 84.5102C67.6919 84.9346 65.3796 84.5552 61.3065 82.8167L60.2727 82.3755L61.3937 82.2925C64.5786 82.0568 66.8361 82.2324 68.1506 82.7136C68.7098 82.9184 69.0836 83.1768 69.2494 83.4728C69.4285 83.7922 69.3465 84.1304 69.0632 84.3355C69.0019 84.3939 68.9053 84.4558 68.7671 84.5102L68.7671 84.5102Z" transform="translate(21.875 8.75)" id="Shape" fill="#D81E06" fill-rule="evenodd" stroke="none" />
    </g>
  </g>
</svg>