<?xml version="1.0" encoding="utf-8"?>
<svg width="48px" height="48px" viewBox="0 0 48 48" version="1.1" xmlns:xlink="http://www.w3.org/1999/xlink" xmlns="http://www.w3.org/2000/svg">
  <g id="group-chat" transform="translate(1 1)">
    <path d="M0 0L46 0L46 46L0 46L0 0Z" id="矩形" fill="#2D8CF0" fill-rule="evenodd" stroke="none" />
    <g id="icon" transform="translate(9.957672 3.7349548)">
      <path d="M0 0L26 0L26 26L0 26L0 0Z" id="Rectangle" fill="#FFFFFF" fill-opacity="0.011764706" fill-rule="evenodd" stroke="none" />
      <path d="M3.79167 7.58333C5.88575 7.58333 7.58333 5.88575 7.58333 3.79167C7.58333 1.69759 5.88575 0 3.79167 0C1.69758 0 0 1.69759 0 3.79167C0 5.88575 1.69758 7.58333 3.79167 7.58333L3.79167 7.58333Z" transform="translate(9.208328 3.25)" id="Shape" fill="#FFFFFF" fill-rule="evenodd" stroke="#FFFFFF" stroke-width="2" stroke-linejoin="round" />
      <path d="M1.625 0C0.642687 0.685181 0 1.82353 0 3.11205C0 4.49129 0.73645 5.69856 1.83755 6.36205" transform="translate(4.875 3.9296265)" id="Shape" fill="none" fill-rule="evenodd" stroke="#FFFFFF" stroke-width="2" stroke-linejoin="round" />
      <path d="M0 0C0.982312 0.685181 1.625 1.82353 1.625 3.11205C1.625 4.40051 0.982312 5.53893 0 6.22409" transform="translate(19.5 3.9296265)" id="Shape" fill="none" fill-rule="evenodd" stroke="#FFFFFF" stroke-width="2" stroke-linejoin="round" />
      <path d="M0 6.5L0 7.58333L13 7.58333L13 6.5C13 4.48094 13 3.47138 12.6701 2.67502C12.2303 1.61325 11.3868 0.769654 10.325 0.329875C9.52862 0 8.51906 0 6.5 0C4.48094 0 3.47138 0 2.67502 0.329875C1.61325 0.769654 0.769654 1.61325 0.329875 2.67502C0 3.47138 0 4.48094 0 6.5L0 6.5Z" transform="translate(6.5 15.1666565)" id="Shape" fill="#FFFFFF" fill-rule="evenodd" stroke="#FFFFFF" stroke-width="2" stroke-linejoin="round" />
      <path d="M2.36605 7.11105L2.36605 6.46105C2.36605 4.03417 2.36605 2.82073 1.89377 1.89377C1.47832 1.0784 0.81537 0.415458 0 0" transform="translate(21.467224 15.638947)" id="Shape" fill="none" fill-rule="evenodd" stroke="#FFFFFF" stroke-width="2" stroke-linejoin="round" />
      <path d="M0 7.11105L0 6.46105C0 4.03417 0 2.82073 0.472306 1.89377C0.887754 1.0784 1.55067 0.415458 2.36604 0" transform="translate(2.1667175 15.638947)" id="Shape" fill="none" fill-rule="evenodd" stroke="#FFFFFF" stroke-width="2" stroke-linejoin="round" />
    </g>
    <path d="M13.3447 0.952148C13.3447 1.00423 13.3187 1.03027 13.2666 1.03027L12.8564 1.02051L12.8564 7.80762L12.876 8.87695C12.876 8.92578 12.8499 8.9502 12.7979 8.9502L12.3975 8.9502C12.3454 8.9502 12.3193 8.92578 12.3193 8.87695L12.3389 7.80762L12.3389 7.00684C12.0166 7.12402 11.512 7.28841 10.8252 7.5C10.6006 7.56185 10.4688 7.6123 10.4297 7.65137C10.3874 7.69043 10.3467 7.70996 10.3076 7.70996C10.262 7.70996 10.2295 7.67741 10.21 7.6123C10.1383 7.40723 10.0846 7.22168 10.0488 7.05566C10.2962 7.02637 10.516 6.99056 10.708 6.94824L10.708 1.02051L10.2393 1.03027C10.1839 1.03027 10.1563 1.00423 10.1563 0.952148L10.1563 0.561523C10.1563 0.50293 10.1839 0.473633 10.2393 0.473633L11.2158 0.493164L12.29 0.493164L13.2666 0.473633C13.3187 0.473633 13.3447 0.50293 13.3447 0.561523L13.3447 0.952148ZM12.3389 6.47949L12.3389 5.07813L11.2256 5.07813L11.2256 6.81641C11.6097 6.71875 11.9808 6.60645 12.3389 6.47949L12.3389 6.47949ZM12.3389 2.5293L12.3389 1.01074L11.2256 1.01074L11.2256 2.5293L12.3389 2.5293ZM12.3389 4.56055L12.3389 3.04688L11.2256 3.04688L11.2256 4.56055L12.3389 4.56055ZM16.04 0.600586C16.04 0.65918 15.9993 0.69987 15.918 0.722656C15.8659 0.735677 15.7666 0.792644 15.6201 0.893555C15.1514 1.21582 14.6908 1.47786 14.2383 1.67969L14.2383 5.93262C14.5475 5.80566 14.8844 5.64453 15.249 5.44922C15.2751 5.17578 15.2881 4.79655 15.2881 4.31152L15.2881 3.35937C15.2881 2.65951 15.2653 2.18425 15.2197 1.93359C15.4541 1.94336 15.6559 1.95964 15.8252 1.98242C15.9066 1.99544 15.9473 2.02474 15.9473 2.07031C15.9473 2.08984 15.931 2.15006 15.8984 2.25098C15.8594 2.37142 15.8398 2.7474 15.8398 3.37891L15.8398 4.30176C15.8398 5.02116 15.8089 5.57129 15.7471 5.95215C15.6885 6.30371 15.5859 6.65039 15.4395 6.99219C15.14 7.69531 14.5785 8.30566 13.7549 8.82324C13.6735 8.86882 13.6279 8.8916 13.6182 8.8916C13.5856 8.8916 13.5352 8.84766 13.4668 8.75977C13.3822 8.64909 13.2796 8.56283 13.1592 8.50098C13.999 8.05827 14.5785 7.50814 14.8975 6.85059C15.0244 6.58691 15.1172 6.31022 15.1758 6.02051C14.8438 6.19303 14.3848 6.40625 13.7988 6.66016C13.5807 6.7513 13.4505 6.81803 13.4082 6.86035C13.3724 6.8929 13.335 6.90918 13.2959 6.90918C13.2536 6.90918 13.2178 6.87174 13.1885 6.79688C13.1364 6.67643 13.0794 6.51855 13.0176 6.32324C13.1966 6.28743 13.4196 6.22396 13.6865 6.13281L13.6865 2.27051C13.6865 1.65853 13.6637 1.23535 13.6182 1.00098C13.8298 1.0498 14.0137 1.11003 14.1699 1.18164C14.5247 1.0026 14.847 0.792643 15.1367 0.551758C15.319 0.392253 15.4492 0.252279 15.5273 0.131836C15.7324 0.275065 15.8773 0.384115 15.9619 0.458984C16.014 0.504557 16.04 0.551758 16.04 0.600586L16.04 0.600586ZM18.7988 0.917969L18.7793 2.38281L18.7793 5.07324L18.7891 6.30371C18.7891 6.53483 18.7728 6.69759 18.7402 6.79199C18.7142 6.87012 18.6605 6.94661 18.5791 7.02148C18.4424 7.14844 18.1722 7.21191 17.7686 7.21191C17.6676 7.21191 17.6074 7.20215 17.5879 7.18262C17.5684 7.16309 17.5488 7.10938 17.5293 7.02148C17.4935 6.87175 17.4365 6.73828 17.3584 6.62109C17.6058 6.64063 17.7799 6.65039 17.8809 6.65039C18.0339 6.65039 18.1299 6.61947 18.1689 6.55762C18.208 6.50228 18.2275 6.38346 18.2275 6.20117L18.2275 1.38184L17.041 1.38184L17.041 7.13379L17.0508 8.90137C17.0508 8.95345 17.028 8.97949 16.9824 8.97949L16.5479 8.97949C16.4958 8.97949 16.4697 8.95345 16.4697 8.90137L16.4893 7.03125L16.4893 2.8125L16.4697 0.917969C16.4697 0.859375 16.4958 0.830078 16.5479 0.830078L17.3096 0.854492L17.9492 0.854492L18.7207 0.830078C18.7728 0.830078 18.7988 0.859375 18.7988 0.917969L18.7988 0.917969ZM4.62402 2.65137C4.62402 2.70345 4.59798 2.72949 4.5459 2.72949L4.12598 2.71973L4.12598 3.24219L4.14551 4.2627C4.14551 4.32129 4.11784 4.35059 4.0625 4.35059L2.93945 4.33105L2.08984 4.33105C1.97266 4.75749 1.86035 5.0944 1.75293 5.3418L3.18848 5.3418L4.13574 5.32227C4.19108 5.32227 4.21875 5.34831 4.21875 5.40039L4.19434 6.31836L4.19434 6.93848L4.21875 8.51074C4.21875 8.56283 4.19108 8.58887 4.13574 8.58887L3.72559 8.58887C3.66699 8.58887 3.6377 8.56283 3.6377 8.51074L3.6377 8.15918L1.94336 8.15918L1.94336 8.75977C1.94336 8.81185 1.91569 8.83789 1.86035 8.83789L1.4502 8.83789C1.3916 8.83789 1.3623 8.81185 1.3623 8.75977L1.38184 7.10938L1.38184 6.0791C1.15072 6.46647 0.86263 6.86198 0.517578 7.26563C0.462239 7.33073 0.423177 7.36328 0.400391 7.36328C0.377604 7.36328 0.340169 7.32259 0.288086 7.24121C0.216472 7.11751 0.120442 7.01335 0 6.92871C0.432942 6.47298 0.771484 6.02539 1.01563 5.58594C1.21745 5.2181 1.38509 4.79981 1.51855 4.33105L0.678711 4.35059C0.626628 4.35059 0.600586 4.32129 0.600586 4.2627L0.600586 3.88184C0.600586 3.82975 0.626628 3.80371 0.678711 3.80371L1.60156 3.82324L1.65039 3.82324C1.71875 3.51725 1.77246 3.14616 1.81152 2.70996L1.41113 2.70996L0.170898 2.72949C0.11556 2.72949 0.0878906 2.70345 0.0878906 2.65137L0.0878906 2.26074C0.0878906 2.20866 0.11556 2.18262 0.170898 2.18262L1.41113 2.20215L1.85059 2.20215C1.86686 1.97428 1.87988 1.61947 1.88965 1.1377L1.7627 1.1377L0.717773 1.15723C0.65918 1.15723 0.629883 1.13119 0.629883 1.0791L0.629883 0.693359C0.629883 0.638021 0.65918 0.610352 0.717773 0.610352L1.7627 0.629883L2.93945 0.629883L4.0625 0.610352C4.11784 0.610352 4.14551 0.638021 4.14551 0.693359L4.12598 1.72852L4.12598 2.20215C4.22689 2.19889 4.32943 2.19401 4.43359 2.1875C4.4987 2.18424 4.53613 2.18262 4.5459 2.18262C4.59798 2.18262 4.62402 2.20866 4.62402 2.26074L4.62402 2.65137ZM3.6377 7.65137L3.6377 5.84961L1.94336 5.84961L1.94336 7.65137L3.6377 7.65137ZM3.56934 3.82324L3.56934 2.70996L2.37305 2.70996C2.33073 3.13314 2.27702 3.50423 2.21191 3.82324L3.56934 3.82324ZM3.56934 2.20215L3.56934 1.1377L2.4707 1.1377C2.46419 1.4209 2.44792 1.77572 2.42188 2.20215L3.56934 2.20215ZM9.13574 6.45996C9.13574 6.5153 9.10645 6.54297 9.04785 6.54297L7.78809 6.52344L7.11914 6.52344L7.11914 7.40234L7.13867 8.90137C7.13867 8.94694 7.111 8.96973 7.05566 8.96973L6.59668 8.96973C6.5446 8.96973 6.51855 8.94694 6.51855 8.90137L6.53809 7.40234L6.53809 6.52344L5.95703 6.52344L4.6875 6.54297C4.63216 6.54297 4.60449 6.5153 4.60449 6.45996L4.60449 6.04004C4.60449 5.98796 4.63216 5.96191 4.6875 5.96191L5.95703 5.98145L6.53809 5.98145L6.53809 4.39941L6.22559 4.39941L5.08789 4.41895C5.03255 4.41895 5.00488 4.38965 5.00488 4.33105L5.00488 3.93066C5.00488 3.87858 5.03255 3.85254 5.08789 3.85254L6.22559 3.87207L6.53809 3.87207L6.53809 2.5293L6.16699 2.5293L4.93652 2.54883C4.88444 2.54883 4.8584 2.52279 4.8584 2.4707L4.8584 2.06055C4.8584 2.00846 4.88444 1.98242 4.93652 1.98242L6.16699 2.00195L7.00684 2.00195C7.23145 1.58854 7.46094 1.09212 7.69531 0.512695C7.76693 0.333659 7.81087 0.162761 7.82715 0C8.04199 0.0618496 8.23242 0.135092 8.39844 0.219727C8.47331 0.262045 8.51074 0.30599 8.51074 0.351563C8.51074 0.384115 8.47656 0.434571 8.4082 0.50293C8.34961 0.561524 8.28939 0.651042 8.22754 0.771484C8.05176 1.15234 7.83529 1.5625 7.57813 2.00195L7.62695 2.00195L8.85742 1.98242C8.90951 1.98242 8.93555 2.00846 8.93555 2.06055L8.93555 2.4707C8.93555 2.52279 8.90951 2.54883 8.85742 2.54883L7.62695 2.5293L7.11914 2.5293L7.11914 3.87207L7.42676 3.87207L8.5791 3.85254C8.63119 3.85254 8.65723 3.87858 8.65723 3.93066L8.65723 4.33105C8.65723 4.38965 8.63119 4.41895 8.5791 4.41895L7.42676 4.39941L7.11914 4.39941L7.11914 5.98145L7.77832 5.98145L9.04785 5.96191C9.10645 5.96191 9.13574 5.98796 9.13574 6.04004L9.13574 6.45996ZM6.33789 1.37207C6.34766 1.3916 6.35254 1.40788 6.35254 1.4209C6.35254 1.44694 6.31836 1.47786 6.25 1.51367L5.9668 1.64063C5.90169 1.66992 5.86263 1.68457 5.84961 1.68457C5.83008 1.68457 5.81217 1.66016 5.7959 1.61133C5.63314 1.18164 5.41992 0.768229 5.15625 0.371094C5.14323 0.345052 5.13672 0.327149 5.13672 0.317383C5.13672 0.297852 5.16764 0.27181 5.22949 0.239258L5.51758 0.112305C5.55338 0.0992844 5.57943 0.0927742 5.5957 0.0927734C5.62174 0.0927742 5.64616 0.10905 5.66895 0.141602C5.93913 0.525716 6.16211 0.935873 6.33789 1.37207L6.33789 1.37207Z" transform="translate(13.338562 33.313538)" id="群聊" fill="#FFFFFF" stroke="none" />
  </g>
</svg>