<?xml version="1.0" encoding="utf-8"?>
<svg width="140px" height="140px" viewBox="0 0 140 140" version="1.1" xmlns:xlink="http://www.w3.org/1999/xlink" xmlns="http://www.w3.org/2000/svg">
  <defs>
    <path d="M0 0L140 0L140 140L0 140L0 0Z" id="path_1" />
    <clipPath id="mask_1">
      <use xlink:href="#path_1" />
    </clipPath>
  </defs>
  <g id="file-icon-link">
    <path d="M0 0L140 0L140 140L0 140L0 0Z" id="Background" fill="none" fill-rule="evenodd" stroke="none" />
    <g clip-path="url(#mask_1)">
      <path d="M94.9648 30.7207C95.7852 31.541 96.25 32.6484 96.25 33.8106L96.25 118.125C96.25 120.545 94.2949 122.5 91.875 122.5L4.375 122.5C1.95508 122.5 0 120.545 0 118.125L0 4.375C0 1.95508 1.95508 0 4.375 0L62.4395 0C63.6016 0 64.7227 0.464844 65.543 1.28516L94.9649 30.7207L94.9648 30.7207ZM86.1602 35.8203L60.4297 10.0898L60.4297 35.8203L86.1602 35.8203L86.1602 35.8203ZM48.4502 56.1605C53.2637 51.3409 61.0621 51.3409 65.8812 56.1605C70.6947 60.98 70.6947 68.7791 65.8812 73.5986L59.262 80.2184C59.0854 80.395 58.7949 80.395 58.6183 80.2184L56.3511 77.9511C56.1745 77.7745 56.1745 77.4839 56.3511 77.3073L62.9704 70.6875C66.035 67.6226 66.3597 62.4555 62.9704 59.0659C59.5867 55.6762 54.4143 56.0009 51.3497 59.0659L44.7304 65.6857C44.5538 65.8623 44.2633 65.8623 44.0867 65.6857L41.8252 63.424C41.6486 63.2474 41.6486 62.9568 41.8252 62.7802L48.4502 56.1605ZM52.563 66.4661C52.7396 66.2895 53.0301 66.2895 53.2067 66.4661L55.4568 68.7221C55.6334 68.8987 55.6334 69.1892 55.4568 69.3659L42.5601 82.2636C42.3835 82.4402 42.093 82.4402 41.9164 82.2636L39.6606 80.0076C39.484 79.831 39.484 79.5405 39.6606 79.3639L52.563 66.4661ZM50.5066 83.1637C50.6832 82.9871 50.9737 82.9871 51.1503 83.1637L53.4061 85.4197C53.5827 85.5963 53.5827 85.8868 53.4061 86.0634L46.7868 92.6832C41.9733 97.5028 34.1749 97.4971 29.3557 92.6832C24.5366 87.8693 24.5366 80.0703 29.3557 75.2507L35.975 68.6309C36.1516 68.4543 36.4421 68.4543 36.6187 68.6309L38.8859 70.8983C39.0625 71.0749 39.0625 71.3654 38.8859 71.542L32.2666 78.1618C29.2019 81.2267 28.8772 86.3938 32.2666 89.7835C35.6503 93.1731 40.8227 92.8484 43.8873 89.7835L50.5066 83.1637Z" transform="translate(21.875 8.75)" id="Shape" fill="#1D60AF" fill-rule="evenodd" stroke="none" />
    </g>
  </g>
</svg>